<svg width="190" height="56" viewBox="0 0 190 56" fill="none" xmlns="http://www.w3.org/2000/svg">
<g clip-path="url(#clip0_3171_78)">
<path fill-rule="evenodd" clip-rule="evenodd" d="M79.088 38.9868C74.6772 42.2559 68.284 44 62.7796 44C55.0616 44 48.1133 41.1296 42.8567 36.3555C42.4438 35.9801 42.8138 35.4685 43.3094 35.7609C48.9823 39.0798 55.9966 41.0765 63.2422 41.0765C68.1287 41.0765 73.5043 40.0599 78.447 37.9502C79.1937 37.6313 79.8182 38.4419 79.088 38.9868Z" fill="#FF9900"/>
<path fill-rule="evenodd" clip-rule="evenodd" d="M80.9223 36.8771C80.3606 36.1529 77.1954 36.5349 75.7747 36.7044C75.3419 36.7575 75.2758 36.3788 75.6657 36.1064C78.1866 34.3223 82.3232 34.8373 82.8055 35.4353C83.2879 36.0366 82.68 40.206 80.311 42.1961C79.9476 42.5017 79.6007 42.3389 79.7626 41.9336C80.2945 40.5981 81.4873 37.6047 80.9223 36.8771Z" fill="#FF9900"/>
<path fill-rule="evenodd" clip-rule="evenodd" d="M75.874 23.5117V21.7775C75.874 21.5151 76.0722 21.339 76.3101 21.339H84.0315C84.2793 21.339 84.4775 21.5184 84.4775 21.7775V23.2626C84.4742 23.5117 84.2661 23.8373 83.896 24.3523L79.8949 30.0964C81.3817 30.0599 82.9511 30.2825 84.2991 31.0466C84.6031 31.2194 84.6857 31.4719 84.7088 31.721V33.5715C84.7088 33.824 84.4313 34.1197 84.1405 33.9669C81.765 32.7144 78.6097 32.5782 75.983 33.9802C75.7154 34.1263 75.4346 33.834 75.4346 33.5815V31.824C75.4346 31.5416 75.4379 31.0599 75.7187 30.6313L80.3542 23.947H76.32C76.0722 23.947 75.874 23.7709 75.874 23.5117Z" fill="black"/>
<path fill-rule="evenodd" clip-rule="evenodd" d="M47.7072 34.3322H45.3581C45.1334 34.3156 44.955 34.1462 44.9385 33.9303V21.8074C44.9385 21.5648 45.14 21.3721 45.3911 21.3721H47.5816C47.8096 21.3821 47.9913 21.5582 48.0079 21.7775V23.3622H48.0508C48.6224 21.8306 49.6962 21.1163 51.1433 21.1163C52.6136 21.1163 53.5321 21.8306 54.1929 23.3622C54.7612 21.8306 56.053 21.1163 57.4374 21.1163C58.4219 21.1163 59.499 21.525 60.1565 22.4419C60.8999 23.4618 60.7479 24.9436 60.7479 26.2426L60.7446 33.8937C60.7446 34.1362 60.5431 34.3322 60.292 34.3322H57.9462C57.7116 34.3156 57.5233 34.1263 57.5233 33.8937V27.4685C57.5233 26.9569 57.5695 25.6811 57.4572 25.1961C57.2821 24.3821 56.7568 24.1529 56.0761 24.1529C55.5079 24.1529 54.9131 24.5349 54.672 25.1462C54.4308 25.7575 54.4539 26.7808 54.4539 27.4685V33.8937C54.4539 34.1362 54.2523 34.3322 54.0012 34.3322H51.6554C51.4176 34.3156 51.2325 34.1263 51.2325 33.8937L51.2292 27.4685C51.2292 26.1163 51.4506 24.1263 49.7821 24.1263C48.0938 24.1263 48.1598 26.0665 48.1598 27.4685V33.8937C48.1598 34.1362 47.9583 34.3322 47.7072 34.3322Z" fill="black"/>
<path fill-rule="evenodd" clip-rule="evenodd" d="M91.1242 21.1163C94.6099 21.1163 96.4965 24.1263 96.4965 27.9535C96.4965 31.6512 94.4117 34.5847 91.1242 34.5847C87.7013 34.5847 85.8379 31.5748 85.8379 27.824C85.8379 24.0499 87.7245 21.1163 91.1242 21.1163ZM91.1441 23.5914C89.4128 23.5914 89.3037 25.9635 89.3037 27.4419C89.3037 28.9236 89.2806 32.0864 91.1242 32.0864C92.9447 32.0864 93.0306 29.5349 93.0306 27.9801C93.0306 26.9569 92.9877 25.7343 92.6804 24.7642C92.4161 23.9203 91.8907 23.5914 91.1441 23.5914Z" fill="black"/>
<path fill-rule="evenodd" clip-rule="evenodd" d="M101.016 34.3322H98.6772C98.4426 34.3156 98.2543 34.1263 98.2543 33.8937L98.251 21.7675C98.2708 21.5449 98.4657 21.3721 98.7036 21.3721H100.881C101.086 21.3821 101.254 21.5216 101.301 21.711V23.5648H101.343C102.001 21.907 102.923 21.1163 104.545 21.1163C105.599 21.1163 106.627 21.4984 107.287 22.5449C107.902 23.515 107.902 25.1462 107.902 26.319V33.9502C107.875 34.1628 107.68 34.3322 107.449 34.3322H105.093C104.879 34.3156 104.7 34.1562 104.677 33.9502V27.3655C104.677 26.0399 104.829 24.0997 103.207 24.0997C102.635 24.0997 102.11 24.4851 101.849 25.0698C101.519 25.8107 101.476 26.5482 101.476 27.3655V33.8937C101.472 34.1362 101.267 34.3322 101.016 34.3322Z" fill="black"/>
<path fill-rule="evenodd" clip-rule="evenodd" d="M109.372 33.3687C109.372 32.7574 109.891 32.2657 110.528 32.2657C111.166 32.2657 111.685 32.7574 111.685 33.3687C111.685 33.9767 111.166 34.475 110.528 34.475C109.891 34.475 109.372 33.9767 109.372 33.3687Z" fill="black"/>
<path fill-rule="evenodd" clip-rule="evenodd" d="M134.26 34.3355C134.016 34.3256 133.824 34.1362 133.824 33.897V21.7741C133.837 21.5582 134.019 21.3887 134.244 21.3754H135.106C135.344 21.3754 135.536 21.5482 135.555 21.7741V23.5415C136.17 22.1396 137.313 21.0432 138.757 21.0432H138.846H138.932C140.465 21.0432 141.585 22.1794 142.002 23.8306C142.652 22.1994 143.875 21.0432 145.487 21.0432H145.57H145.666C146.805 21.0432 147.902 21.7808 148.471 22.9037C149.019 23.9768 148.999 25.4053 148.999 26.6047L148.996 33.897C148.999 34.1296 148.811 34.3189 148.576 34.3355H147.546C147.321 34.3256 147.139 34.1661 147.109 33.9568V26.6047C147.109 25.7376 147.152 24.8173 146.802 24.0266C146.445 23.2193 145.761 22.7143 145.028 22.6778C144.209 22.7176 143.455 23.319 142.966 24.1296C142.332 25.1761 142.355 26.1196 142.355 27.3422V33.9634C142.325 34.1628 142.15 34.3189 141.935 34.3355H140.911C140.667 34.3256 140.472 34.1362 140.472 33.897L140.465 26.1196C140.465 25.4053 140.422 24.5648 140.095 23.9236C139.715 23.1927 139.035 22.7143 138.321 22.6778C137.581 22.721 136.834 23.2891 136.391 23.9502C135.82 24.794 135.711 25.8372 135.711 26.9103V33.897C135.711 34.1296 135.522 34.3189 135.288 34.3355H134.26Z" fill="black"/>
<path fill-rule="evenodd" clip-rule="evenodd" d="M127.184 34.588C123.85 34.588 122.356 31.1694 122.356 27.7508C122.356 24.1562 124.111 21.0432 127.468 21.0432H127.554H127.646C130.91 21.0432 132.536 24.3588 132.536 27.7774C132.536 31.3987 130.735 34.588 127.359 34.588H127.273H127.184ZM127.428 32.9302C128.525 32.8937 129.391 32.2093 129.903 31.0698C130.362 30.0465 130.451 28.8738 130.451 27.7508C130.451 26.5282 130.319 25.2525 129.747 24.206C129.235 23.2924 128.356 22.711 127.425 22.6778C126.387 22.7143 125.459 23.4219 124.993 24.5116C124.573 25.4552 124.445 26.7077 124.445 27.7508C124.445 28.9236 124.597 30.2791 125.079 31.299C125.548 32.2658 126.45 32.8937 127.428 32.9302Z" fill="black"/>
<path fill-rule="evenodd" clip-rule="evenodd" d="M116.767 32.8771C118.263 32.8306 119.05 31.6246 119.373 30.0631C119.439 29.8671 119.588 29.7176 119.806 29.7176L120.794 29.7143C121.029 29.7242 121.243 29.9037 121.224 30.1229C120.768 32.784 119.172 34.588 116.899 34.588H116.806H116.72C113.41 34.588 111.982 31.2458 111.982 27.8538C111.982 24.4884 113.43 21.0432 116.74 21.0432H116.829H116.919C119.218 21.0432 120.857 22.8239 121.214 25.4851C121.214 25.6844 121.029 25.8572 120.811 25.8804L119.776 25.8671C119.558 25.8372 119.416 25.6512 119.383 25.4419C119.135 23.9568 118.286 22.7741 116.872 22.7276C114.622 22.8007 113.981 25.5847 113.981 27.7276C113.981 29.7907 114.517 32.804 116.767 32.8771Z" fill="black"/>
<path fill-rule="evenodd" clip-rule="evenodd" d="M69.7187 28.5415C69.7187 29.4618 69.7418 30.2292 69.2792 31.0465C68.9059 31.7109 68.3112 32.1196 67.6537 32.1196C66.7517 32.1196 66.2231 31.4285 66.2231 30.4086C66.2231 28.3953 68.0171 28.0299 69.7187 28.0299V28.5415ZM72.0876 34.299C71.9323 34.4385 71.7077 34.4485 71.5326 34.3555C70.7528 33.7043 70.6107 33.402 70.1845 32.7807C68.896 34.103 67.9808 34.4983 66.3123 34.4983C64.3332 34.4983 62.7969 33.2724 62.7969 30.8173C62.7969 28.9003 63.8277 27.5947 65.3013 26.9568C66.5766 26.392 68.3574 26.2923 69.7187 26.1362V25.8306C69.7187 25.2691 69.7616 24.6046 69.4312 24.1196C69.1471 23.6844 68.5986 23.505 68.113 23.505C67.2176 23.505 66.4213 23.9668 66.2264 24.9236C66.1867 25.1362 66.0315 25.3455 65.8167 25.3555L63.5403 25.1096C63.3486 25.0664 63.1339 24.9103 63.19 24.6146C63.7121 21.8372 66.2099 21 68.4433 21C69.5865 21 71.0799 21.3056 71.9819 22.1761C73.1251 23.2492 73.016 24.6811 73.016 26.2392V29.9202C73.016 31.0266 73.472 31.5116 73.9015 32.1096C74.0502 32.3222 74.0832 32.578 73.8916 32.7375C73.4125 33.1395 72.5601 33.887 72.0909 34.3056L72.0876 34.299Z" fill="black"/>
<path fill-rule="evenodd" clip-rule="evenodd" d="M38.9218 28.5416C38.9218 29.4619 38.9449 30.2293 38.4824 31.0466C38.109 31.7111 37.5176 32.1197 36.8568 32.1197C35.9548 32.1197 35.4295 31.4287 35.4295 30.4087C35.4295 28.3955 37.2236 28.03 38.9218 28.03V28.5416ZM41.2907 34.2991C41.1355 34.4386 40.9108 34.4486 40.7357 34.3556C39.9559 33.7044 39.8172 33.4021 39.3877 32.7808C38.0991 34.1031 37.1872 34.4984 35.5154 34.4984C33.5396 34.4984 32 33.2725 32 30.8174C32 28.9004 33.0341 27.5948 34.5044 26.9569C35.7797 26.3921 37.5606 26.2925 38.9218 26.1363V25.8307C38.9218 25.2692 38.9648 24.6048 38.6377 24.1197C38.3502 23.6845 37.8018 23.5051 37.3194 23.5051C36.424 23.5051 35.6244 23.9669 35.4295 24.9237C35.3899 25.1363 35.2346 25.3456 35.0231 25.3556L32.7434 25.1097C32.5518 25.0666 32.3403 24.9104 32.3932 24.6147C32.9185 21.8373 35.413 21.0001 37.6465 21.0001C38.7896 21.0001 40.283 21.3058 41.185 22.1762C42.3282 23.2493 42.2192 24.6812 42.2192 26.2393V29.9204C42.2192 31.0267 42.6751 31.5117 43.1046 32.1097C43.2566 32.3224 43.2896 32.5782 43.098 32.7376C42.6189 33.1396 41.7665 33.8871 41.2973 34.3057L41.2907 34.2991Z" fill="black"/>
</g>
<defs>
<clipPath id="clip0_3171_78">
<rect width="117" height="23" fill="white" transform="translate(32 21)"/>
</clipPath>
</defs>
</svg>
