<svg width="190" height="56" viewBox="0 0 190 56" fill="none" xmlns="http://www.w3.org/2000/svg">
<g clip-path="url(#clip0_3223_82)">
<g clip-path="url(#clip1_3223_82)">
<path d="M61.1982 32.2688V25.5162H63.2503C63.88 25.4737 64.5041 25.6598 65.0092 26.0407C65.2223 26.2203 65.3918 26.4466 65.5047 26.7023C65.6176 26.9579 65.6709 27.2362 65.6606 27.5158C65.6693 27.8973 65.5674 28.2732 65.3675 28.5975C65.1722 28.8926 64.9024 29.1302 64.5857 29.2858L66.6704 32.2688H65.0417L63.2503 29.5481H62.5663V32.2688H61.1982ZM63.3154 26.6635H62.5663V28.368H63.3154C63.439 28.3786 63.5633 28.3637 63.6809 28.3242C63.7985 28.2847 63.9069 28.2216 63.9994 28.1386C64.0861 28.0608 64.1545 27.9645 64.1996 27.8568C64.2446 27.749 64.2653 27.6325 64.26 27.5158C64.2611 27.3995 64.2385 27.2844 64.1937 27.1773C64.1489 27.0701 64.0828 26.9734 63.9994 26.8929C63.8045 26.7395 63.5629 26.6584 63.3154 26.6635Z" fill="black"/>
<path d="M67.5176 32.269V25.5164H71.4588V26.6637H68.8856V28.2371H71.0679V29.4172H68.8856V31.0889H71.4588V32.269H67.5176ZM70.0908 24.9264H68.853L69.9279 23.6152H71.3611L70.0908 24.9264Z" fill="black"/>
<path d="M73.0205 32.2675V25.515H75.268C75.8871 25.4775 76.4992 25.6634 76.9943 26.0395C77.1977 26.2268 77.3601 26.4547 77.4713 26.7086C77.5824 26.9626 77.6398 27.237 77.6398 27.5145C77.6398 27.792 77.5824 28.0665 77.4713 28.3204C77.3601 28.5744 77.1977 28.8023 76.9943 28.9896C76.5037 29.3773 75.8911 29.575 75.268 29.5469H74.3885V32.2675H73.0205ZM75.3006 26.6623H74.3885V28.3668H75.3006C75.4241 28.3773 75.5484 28.3624 75.666 28.323C75.7837 28.2835 75.892 28.2204 75.9846 28.1373C76.0713 28.0595 76.1396 27.9633 76.1847 27.8555C76.2298 27.7478 76.2504 27.6313 76.2451 27.5145C76.2462 27.3983 76.2236 27.2831 76.1788 27.176C76.134 27.0689 76.0679 26.9722 75.9846 26.8917C75.7896 26.7383 75.548 26.6572 75.3006 26.6623Z" fill="black"/>
<path d="M82.7299 29.7449V25.5164H84.0979V29.6138C84.1304 30.3848 83.8615 31.1379 83.3487 31.7116C82.8007 32.2001 82.0939 32.4698 81.3618 32.4698C80.6297 32.4698 79.923 32.2001 79.3749 31.7116C78.8709 31.1346 78.6134 30.3807 78.6584 29.6138V25.5164H80.0264V29.7449C80.0106 29.9352 80.0342 30.1267 80.0959 30.3073C80.1576 30.4879 80.2559 30.6536 80.3847 30.7938C80.5102 30.9259 80.6623 31.0293 80.8309 31.0971C80.9994 31.165 81.1805 31.1957 81.3618 31.1872C81.5481 31.1962 81.7342 31.1659 81.9081 31.0981C82.082 31.0304 82.2399 30.9267 82.3716 30.7938C82.6191 30.5027 82.7472 30.1276 82.7299 29.7449Z" fill="black"/>
<path d="M85.791 32.2693V25.5168H87.7128C88.2963 25.4821 88.8732 25.6562 89.3414 26.0085C89.5421 26.1679 89.7028 26.3726 89.8103 26.6061C89.9178 26.8396 89.9692 27.0953 89.9602 27.3524C89.9619 27.6166 89.8945 27.8766 89.7648 28.1064C89.6441 28.336 89.4641 28.5285 89.2437 28.6636C89.575 28.8099 89.8576 29.0488 90.058 29.352C90.2507 29.6185 90.3535 29.9402 90.3511 30.2698C90.3627 30.5528 90.3066 30.8345 90.1876 31.0912C90.0686 31.3478 89.8901 31.572 89.6671 31.7449C89.137 32.1254 88.4929 32.3106 87.8431 32.2693H85.791ZM87.7128 26.6641H87.159V28.1719H87.7128C87.9357 28.182 88.1549 28.1123 88.3316 27.9753C88.4045 27.9022 88.4623 27.8153 88.5018 27.7197C88.5412 27.6241 88.5616 27.5215 88.5616 27.418C88.5616 27.3145 88.5412 27.2119 88.5018 27.1163C88.4623 27.0207 88.4045 26.9338 88.3316 26.8608C88.1549 26.7237 87.9357 26.654 87.7128 26.6641ZM87.9082 29.352H87.159V31.0893H87.9082C88.1781 31.1137 88.4468 31.0314 88.6574 30.8598C88.7545 30.7819 88.8317 30.6817 88.8827 30.5677C88.9337 30.4537 88.9569 30.3291 88.9505 30.2042C88.9544 30.0797 88.93 29.956 88.8792 29.8424C88.8284 29.7288 88.7525 29.6283 88.6574 29.5487C88.4359 29.402 88.1726 29.3328 87.9082 29.352Z" fill="black"/>
<path d="M91.7188 32.2689V25.5164H93.0868V31.0233H95.66V32.2689H91.7188Z" fill="black"/>
<path d="M96.8652 32.2689V25.5164H98.2333V32.2689H96.8652Z" fill="black"/>
<path d="M105.756 32.1041C105.963 32.3114 106.206 32.4781 106.473 32.5958C106.688 32.6962 106.92 32.7519 107.157 32.7597H107.385L107.646 32.6941V33.8742L107.32 33.9725H106.929C106.559 33.9665 106.194 33.8886 105.854 33.743C105.474 33.5683 105.122 33.3362 104.812 33.0547L104.03 32.3663L103.574 32.4319H103.086C102.592 32.4387 102.103 32.3381 101.652 32.1368C101.233 31.9518 100.848 31.697 100.512 31.3829C99.8816 30.6959 99.5326 29.7942 99.5352 28.8589C99.5326 27.9236 99.8816 27.0219 100.512 26.3349C100.839 26.0105 101.227 25.7543 101.652 25.581C102.103 25.3798 102.592 25.2791 103.086 25.286C103.589 25.2795 104.089 25.38 104.551 25.581C104.973 25.7619 105.359 26.0172 105.691 26.3349C106.322 27.0219 106.671 27.9236 106.668 28.8589C106.665 29.4035 106.543 29.9407 106.31 30.4323C106.088 30.9204 105.753 31.3477 105.333 31.6779L105.756 32.1041ZM103.086 31.1862C103.67 31.1714 104.227 30.9376 104.649 30.5307C104.831 30.3109 104.984 30.0685 105.105 29.8095C105.322 29.2171 105.322 28.5663 105.105 27.9739C104.992 27.7108 104.838 27.4674 104.649 27.2527C104.449 27.0527 104.218 26.8866 103.965 26.761C103.684 26.6531 103.386 26.5976 103.086 26.5971C102.796 26.6008 102.509 26.6563 102.239 26.761C101.976 26.8702 101.742 27.0384 101.555 27.2527C101.355 27.4591 101.2 27.7045 101.099 27.9739C100.882 28.5663 100.882 29.2171 101.099 29.8095C101.207 30.0752 101.361 30.3193 101.555 30.5307C101.736 30.7448 101.973 30.9038 102.239 30.9896C102.502 31.1205 102.792 31.1878 103.086 31.1862Z" fill="black"/>
<path d="M111.946 29.7449V25.5164H113.314V29.6138C113.346 30.3848 113.077 31.1379 112.564 31.7116C112.016 32.2001 111.31 32.4698 110.578 32.4698C109.845 32.4698 109.139 32.2001 108.591 31.7116C108.078 31.1379 107.809 30.3848 107.842 29.6138V25.5164H109.21V29.7449C109.198 29.9375 109.227 30.1305 109.294 30.3112C109.361 30.4919 109.466 30.6563 109.6 30.7938C109.725 30.9276 109.876 31.0322 110.045 31.1002C110.214 31.1682 110.396 31.1979 110.578 31.1872C110.764 31.1962 110.95 31.1659 111.124 31.0981C111.298 31.0304 111.456 30.9267 111.587 30.7938C111.835 30.5027 111.963 30.1276 111.946 29.7449Z" fill="black"/>
<path d="M115.008 32.2689V25.5164H118.916V26.6636H116.376V28.237H118.526V29.4171H116.376V31.0888H118.916V32.2689H115.008Z" fill="black"/>
<path d="M61.1982 42.4952V35.7427H65.1069V36.89H62.5663V38.4634H64.7486V39.6434H62.5663V42.4952H61.1982Z" fill="black"/>
<path d="M66.3115 42.4951V35.7425H68.3636C68.9933 35.7 69.6174 35.8861 70.1225 36.267C70.3356 36.4467 70.505 36.673 70.6179 36.9286C70.7308 37.1843 70.7842 37.4625 70.7739 37.7421C70.7825 38.1236 70.6807 38.4995 70.4807 38.8238C70.2854 39.1189 70.0156 39.3565 69.699 39.5122L71.8162 42.4951H70.1876L68.3961 39.7744H67.6796V42.4951H66.3115ZM68.4613 36.8898H67.6796V38.5943H68.4613C68.5798 38.6043 68.699 38.589 68.8113 38.5494C68.9235 38.5099 69.0262 38.447 69.1127 38.3649C69.1994 38.2871 69.2678 38.1908 69.3128 38.0831C69.3579 37.9753 69.3786 37.8588 69.3733 37.7421C69.3744 37.6259 69.3518 37.5107 69.307 37.4036C69.2622 37.2965 69.1961 37.1997 69.1127 37.1193C68.9305 36.9656 68.6989 36.884 68.4613 36.8898Z" fill="black"/>
<path d="M72.1113 42.4952L74.6519 35.7427H76.4434L78.984 42.4952H77.5183L76.8668 40.7251H74.1959L73.5445 42.4952H72.1113ZM74.6194 39.5779H76.4434L75.5314 37.0211L74.6194 39.5779Z" fill="black"/>
<path d="M80.0264 42.4952V35.7427H81.7527L84.7819 40.5612V35.7427H86.1499V42.4952H84.391L81.3618 37.6439V42.4952H80.0264Z" fill="black"/>
<path d="M91.0015 41.4137C91.3654 41.4165 91.7241 41.3263 92.0438 41.1515C92.3266 40.9871 92.571 40.7635 92.7604 40.4959L93.8353 41.3154C93.583 41.6834 93.2483 41.9866 92.8582 42.2004C92.459 42.4401 92.0158 42.5962 91.5553 42.6593L90.7084 44.0688H89.5032L90.3501 42.6266C89.9259 42.5597 89.5174 42.4153 89.1449 42.2004C88.8056 41.9828 88.4985 41.7179 88.2329 41.4137C87.975 41.0912 87.7765 40.7248 87.6466 40.332C87.516 39.9412 87.45 39.5315 87.4512 39.1192C87.4486 38.1839 87.7977 37.2822 88.4284 36.5952C88.7553 36.2707 89.1427 36.0145 89.5684 35.8412C90.0194 35.64 90.5083 35.5394 91.0015 35.5462C91.575 35.5413 92.1423 35.6644 92.6627 35.9068C93.1297 36.1447 93.5322 36.4935 93.8353 36.923L92.7604 37.7424C92.571 37.4748 92.3266 37.2512 92.0438 37.0869C91.7241 36.9121 91.3654 36.8218 91.0015 36.8246C90.7118 36.8283 90.4251 36.8838 90.1547 36.9885C89.8871 37.1055 89.644 37.2723 89.4381 37.4802C89.2595 37.6962 89.1165 37.9397 89.0146 38.2013C88.7978 38.7938 88.7978 39.4446 89.0146 40.037C89.1239 40.2949 89.2663 40.5374 89.4381 40.7581C89.6369 40.9667 89.8827 41.1241 90.1547 41.217C90.4179 41.348 90.7079 41.4153 91.0015 41.4137Z" fill="black"/>
<path d="M94.127 42.4952L96.6676 35.7427H98.459L101 42.4952H99.5665L98.915 40.7251H96.2441L95.5927 42.4952H94.127ZM96.6676 39.5779H98.4916L97.5796 37.0211L96.6676 39.5779Z" fill="black"/>
<path d="M102.043 42.4952V35.7427H103.411V42.4952H102.043Z" fill="black"/>
<path d="M104.683 41.5779L105.692 40.6601C105.88 40.8994 106.113 41.0998 106.376 41.2501C106.62 41.4055 106.903 41.4853 107.191 41.4796C107.414 41.4896 107.633 41.42 107.81 41.2829C107.888 41.2071 107.949 41.115 107.988 41.0132C108.027 40.9113 108.044 40.802 108.038 40.6929C108.034 40.5421 107.985 40.396 107.898 40.2732C107.811 40.1505 107.689 40.0569 107.549 40.0045L106.507 39.4801C106.119 39.3016 105.757 39.0699 105.432 38.7917C105.274 38.6203 105.153 38.4188 105.074 38.1992C104.996 37.9796 104.963 37.7463 104.976 37.5133C104.964 37.252 105.02 36.9922 105.139 36.7594C105.228 36.5113 105.373 36.2871 105.562 36.1038C105.766 35.9348 105.998 35.8018 106.246 35.7104C106.522 35.587 106.824 35.5308 107.126 35.5465C107.587 35.5388 108.045 35.6398 108.461 35.8415C108.847 36.0604 109.189 36.3493 109.471 36.6938L108.461 37.5789C108.289 37.3395 108.08 37.1293 107.842 36.956C107.628 36.8167 107.38 36.7375 107.126 36.7266C107.022 36.7201 106.918 36.7373 106.822 36.7771C106.726 36.8168 106.641 36.878 106.572 36.956C106.497 37.0137 106.438 37.0884 106.398 37.1739C106.359 37.2595 106.34 37.3534 106.344 37.4477C106.347 37.5985 106.396 37.7447 106.483 37.8674C106.57 37.9901 106.692 38.0837 106.832 38.1361L107.875 38.6606C108.271 38.8387 108.634 39.0825 108.95 39.3817C109.118 39.5467 109.249 39.7464 109.333 39.9671C109.417 40.1878 109.453 40.4242 109.438 40.6601C109.412 40.9518 109.346 41.2385 109.243 41.5124C109.117 41.7569 108.952 41.9785 108.754 42.168C108.55 42.337 108.319 42.4699 108.07 42.5613C107.787 42.6554 107.489 42.6997 107.191 42.6924C106.697 42.7059 106.206 42.6049 105.757 42.3974C105.348 42.2003 104.982 41.9215 104.683 41.5779Z" fill="black"/>
<path d="M110.872 42.4952V35.7427H114.781V36.89H112.208V38.4634H114.39V39.6434H112.208V41.3152H114.781V42.4952H110.872Z" fill="black"/>
<path d="M71.6859 19.7466L71.9791 19.4516C72.1579 19.2389 72.354 19.0415 72.5654 18.8615L72.7608 18.6976C72.7796 18.6808 72.7913 18.6574 72.7934 18.6321L72.5654 18.7632C72.5654 18.7632 72.5328 18.7632 72.5654 18.7304L72.7282 18.5993H72.6956C72.5891 18.594 72.4828 18.6152 72.3863 18.6609C72.2897 18.7066 72.2058 18.7755 72.1419 18.8615H72.0768C71.8162 18.9599 71.6208 19.1893 71.3602 19.2877L71.0345 19.4188C70.8938 19.4353 70.7517 19.4353 70.611 19.4188L69.9596 19.5499L69.6339 19.681H69.6013C69.6013 19.6897 69.5979 19.6981 69.5918 19.7042C69.5857 19.7104 69.5774 19.7138 69.5687 19.7138L69.471 19.8121C69.3673 19.8806 69.2693 19.9573 69.1779 20.0416H69.1453L68.8521 20.3366H68.8196C68.8521 20.3366 68.8521 20.3038 68.8847 20.2711C68.8868 20.2458 68.8984 20.2223 68.9173 20.2055C68.9509 20.1689 68.9735 20.1234 68.9824 20.0744L69.2756 19.8777C69.2669 19.8777 69.2587 19.8743 69.2525 19.8681C69.2464 19.862 69.243 19.8536 69.243 19.8449H69.1779C69.1453 19.9105 69.1127 19.976 69.0476 19.976C69.0476 19.9673 69.051 19.959 69.0571 19.9529C69.0632 19.9467 69.0715 19.9433 69.0801 19.9433L69.2104 19.8449L69.4059 19.7138H69.4384L69.1453 19.8449H69.1127C69.1127 19.8449 69.1127 19.8777 69.0801 19.8449L69.1779 19.7466H69.2104C69.7642 19.3205 70.5459 19.4188 71.1973 19.1893L71.3602 19.091C71.4253 19.0582 71.4905 18.9599 71.6208 18.9271C71.7546 18.814 71.8558 18.6668 71.9139 18.501H71.8813C71.6416 18.5944 71.3889 18.6497 71.1322 18.6649C70.7585 18.8094 70.3596 18.8763 69.9596 18.8615H70.0573C70.0573 18.8288 70.0899 18.796 70.1225 18.7632H70.1876C70.1876 18.7589 70.1884 18.7546 70.1901 18.7507C70.1917 18.7467 70.1941 18.7431 70.1971 18.74C70.2002 18.737 70.2038 18.7346 70.2077 18.7329C70.2117 18.7313 70.2159 18.7304 70.2202 18.7304H70.2853C70.2202 18.6649 70.1225 18.796 70.0247 18.7304C69.927 18.6649 70.0573 18.6649 70.0899 18.6321H70.155C70.1571 18.6068 70.1688 18.5833 70.1876 18.5665C70.4482 18.4026 70.7088 18.3043 70.9368 18.1404C71.1648 17.9765 70.8716 18.206 70.8065 18.1732C70.7413 18.1404 70.8065 18.1076 70.839 18.1076C71.0291 18.0453 71.2142 17.9686 71.3928 17.8782C71.3276 17.8782 71.2625 17.9437 71.1973 17.8782H71.2951V17.8126C71.2951 17.8039 71.2985 17.7956 71.3046 17.7894C71.3107 17.7833 71.319 17.7798 71.3276 17.7798H71.2951L71.3928 17.7143H71.3602C71.3871 17.6801 71.422 17.6532 71.4618 17.636C71.5016 17.6189 71.5451 17.612 71.5882 17.6159C71.5556 17.5832 71.4905 17.6159 71.4905 17.5832C71.4905 17.5504 71.5231 17.5504 71.5556 17.5504H71.4905C71.4818 17.5504 71.4736 17.5469 71.4675 17.5408C71.4613 17.5346 71.4579 17.5263 71.4579 17.5176C71.4579 17.5089 71.4613 17.5006 71.4675 17.4944C71.4736 17.4883 71.4818 17.4848 71.4905 17.4848C71.5589 17.3487 71.6135 17.2059 71.6533 17.0587H71.6208C71.4108 17.2299 71.1663 17.353 70.9042 17.4193H70.8065C70.7585 17.4374 70.7069 17.4439 70.656 17.4382C70.6051 17.4325 70.5562 17.4148 70.5133 17.3865L70.3505 17.2554L69.8945 17.0259C69.4683 16.8494 69.018 16.7388 68.559 16.6981C68.7597 16.6241 68.9669 16.5693 69.1779 16.5342C69.4552 16.4141 69.7557 16.3581 70.0573 16.3703C69.9922 16.3375 69.927 16.3703 69.8945 16.3703C69.6408 16.3546 69.3865 16.388 69.1453 16.4687L68.6241 16.5998C68.5264 16.6326 68.4613 16.7637 68.3636 16.7309V16.6653C68.4388 16.5545 68.5351 16.4598 68.6469 16.3867C68.7587 16.3135 68.8838 16.2634 69.015 16.2392C69.3188 16.2005 69.6268 16.2115 69.927 16.272L70.611 16.4031C70.6762 16.4031 70.7088 16.5342 70.7739 16.567C70.839 16.5998 70.9693 16.567 71.0996 16.6326C71.2299 16.6981 71.067 16.567 71.0996 16.5342C71.1322 16.5014 71.2299 16.5342 71.3276 16.5014C71.4253 16.4687 71.1973 16.272 71.1322 16.1409C71.2588 16.268 71.4011 16.3781 71.5556 16.4687C71.6533 16.5342 71.8488 16.567 71.8162 16.4687C71.7046 16.2805 71.5736 16.1047 71.4253 15.9442V15.8786H71.3602V15.7147C71.2951 15.682 71.3276 15.6164 71.2625 15.5836C71.1973 15.5508 71.2625 15.3542 71.2299 15.2558C71.1927 15.1616 71.1707 15.062 71.1648 14.9608C71.0948 14.68 71.0404 14.3955 71.0019 14.1085C70.9693 13.7808 71.1973 13.5185 71.3602 13.2235C71.4571 12.9883 71.629 12.7923 71.8488 12.6663C71.9052 12.4543 72.0178 12.2617 72.1745 12.109C72.3084 11.9389 72.4899 11.8133 72.6956 11.7484L73.1842 11.5518H76.6694L76.7346 11.6173L76.9952 11.7484C77.1231 11.8083 77.2348 11.8982 77.3209 12.0107C77.3535 12.0762 77.4186 12.1746 77.386 12.2401C77.3535 12.3057 77.3209 12.4696 77.2557 12.5024C77.1328 12.5563 76.9985 12.5788 76.8649 12.5679L76.6694 12.5024C76.9403 12.5955 77.178 12.7665 77.3535 12.994L77.5163 13.0596C77.4837 13.0924 77.4512 13.1252 77.4837 13.1579H77.5163C77.614 13.1252 77.5815 12.9613 77.7117 13.0268C77.7365 13.0361 77.7587 13.0513 77.7763 13.0712C77.794 13.091 77.8065 13.1149 77.8129 13.1407C77.8194 13.1665 77.8194 13.1935 77.8131 13.2194C77.8069 13.2452 77.7944 13.2691 77.7769 13.2891L77.5815 13.453C77.5654 13.471 77.5566 13.4943 77.5566 13.5185C77.5566 13.5427 77.5654 13.566 77.5815 13.5841L77.6792 13.7808L77.7769 14.1741C77.8677 14.4261 77.9118 14.6928 77.9072 14.9608C77.9072 15.0919 77.842 15.223 77.8746 15.3542C77.9332 15.4885 77.9984 15.6198 78.07 15.7475C78.1552 15.8178 78.2223 15.9078 78.2655 16.0097C78.3632 16.1736 78.5586 16.3703 78.4935 16.567C78.4283 16.7637 78.2329 16.6653 78.1026 16.7637C77.9723 16.862 78.1026 16.9931 78.1678 17.0587C78.2329 17.1242 78.0375 17.3209 77.9398 17.3865C77.842 17.452 78.0375 17.4193 78.0375 17.452C78.0375 17.4848 78.1678 17.5832 78.1026 17.6815C78.0375 17.7798 77.8095 17.8454 77.9398 18.0093C78.07 18.1732 77.9398 18.2715 77.9072 18.3699C77.88 18.4381 77.8357 18.4982 77.7786 18.5441C77.7216 18.5901 77.6536 18.6204 77.5815 18.6321C77.5327 18.6609 77.4784 18.6788 77.4222 18.6844C77.3659 18.6901 77.3092 18.6834 77.2557 18.6649H77.158C76.8675 18.6051 76.5739 18.5614 76.2786 18.5338L76.018 18.5993L75.8226 18.796H75.7249L75.5946 18.9927C75.5946 19.0254 75.5946 19.0254 75.562 19.0254L75.4317 19.3532C75.334 19.7466 75.3666 20.1072 75.4643 20.1727C75.562 20.2383 76.0506 20.3694 76.4089 20.5661L76.8323 20.7627H69.6664C70.036 20.5462 70.4165 20.3492 70.8065 20.1727C71.1273 20.0499 71.4248 19.8725 71.6859 19.6482M69.015 18.4026C68.9824 18.4026 68.9173 18.4354 68.9173 18.4026C68.9173 18.3699 69.0476 18.3043 69.1453 18.2715C69.243 18.2387 69.2104 18.206 69.243 18.2387L69.3733 18.3043C69.2756 18.4026 69.1453 18.3699 69.015 18.4026ZM66.3441 18.0093H66.3115C66.5364 17.7352 66.7329 17.4386 66.8978 17.1242C67.106 17.0009 67.3023 16.8582 67.4841 16.6981C67.7557 16.3742 68.0876 16.1069 68.4613 15.9114C68.613 15.8743 68.7724 15.8857 68.9173 15.9442C68.8521 16.0097 68.7544 16.0097 68.6893 16.0425H68.6567V15.977C68.4939 16.1736 68.2333 16.272 68.103 16.5014C67.9727 16.7309 67.9401 16.8948 67.7121 16.9276C67.4841 16.9603 67.7121 16.8948 67.6796 16.8948C67.1897 17.2462 66.7416 17.6532 66.3441 18.1076M67.7773 16.9603C67.7773 16.9931 67.7447 16.9931 67.7447 17.0259C67.7447 17.0587 67.7121 17.0915 67.6796 17.0915H67.647C67.647 17.0259 67.7121 16.9276 67.7773 16.9276M68.5916 19.5499C68.5916 19.5827 68.559 19.5827 68.559 19.6155C68.559 19.6483 68.5916 19.6155 68.5916 19.6482L68.4613 19.7138C68.4526 19.7138 68.4444 19.7173 68.4382 19.7234C68.4321 19.7296 68.4287 19.7379 68.4287 19.7466H68.3636C68.331 19.7794 68.2333 19.7794 68.2658 19.7466L68.3961 19.6155C68.4287 19.5827 68.4613 19.5827 68.4613 19.5499H68.5916ZM68.2984 19.4188L68.0704 19.5499L67.8424 19.6482H67.8098L67.647 19.7794H67.5493C67.5493 19.7881 67.5458 19.7964 67.5397 19.8025C67.5336 19.8087 67.5253 19.8121 67.5167 19.8121H67.4841C67.4841 19.8449 67.4841 19.8449 67.4515 19.8449H67.419C67.3864 19.8777 67.3538 19.8777 67.3538 19.9105L67.2561 20.0088H67.1584L67.2235 19.9433H67.2887C67.2887 19.9347 67.2904 19.9261 67.2936 19.9182C67.2969 19.9102 67.3017 19.903 67.3078 19.8969C67.3138 19.8908 67.321 19.886 67.3289 19.8827C67.3368 19.8794 67.3453 19.8777 67.3538 19.8777C67.3538 19.869 67.3573 19.8607 67.3634 19.8545C67.3695 19.8484 67.3778 19.8449 67.3864 19.8449C67.419 19.8121 67.419 19.8121 67.419 19.7794C67.4515 19.7466 67.4841 19.7138 67.4841 19.681L67.419 19.7466C67.4103 19.7466 67.4021 19.7431 67.3959 19.737C67.3898 19.7308 67.3864 19.7225 67.3864 19.7138C67.3907 19.7138 67.3949 19.713 67.3989 19.7113C67.4028 19.7097 67.4064 19.7073 67.4094 19.7042C67.4125 19.7012 67.4149 19.6975 67.4165 19.6936C67.4181 19.6896 67.419 19.6853 67.419 19.681H67.4515L67.5167 19.5827H67.5818V19.5171C67.7773 19.3532 68.0378 19.386 68.2658 19.2549C68.4939 19.1238 68.4613 19.2877 68.5264 19.2549H68.6893L68.2658 19.5499M68.6241 18.3371C68.5916 18.3043 68.6567 18.3371 68.6893 18.2715H68.559L68.2658 18.3699L67.9076 18.501C67.7299 18.612 67.5449 18.7105 67.3538 18.796C67.3213 18.796 67.3213 18.796 67.3213 18.7632L67.4515 18.6649C67.5896 18.4872 67.7545 18.3324 67.9401 18.206V18.1404C68.0132 18.0833 68.0788 18.0172 68.1356 17.9437C68.1484 17.9057 68.1698 17.8711 68.198 17.8427C68.2263 17.8143 68.2606 17.7928 68.2984 17.7798H68.2333C68.1681 17.7798 68.103 17.8126 68.0378 17.747L68.1356 17.6815H68.103C68.0704 17.6159 68.1356 17.5832 68.2007 17.5832L68.3961 17.5176C68.2658 17.4848 68.1356 17.5504 68.0053 17.4848C68.0828 17.2565 68.2467 17.068 68.4613 16.9603H68.4939C68.4939 17.0587 68.4613 17.1242 68.3636 17.1242L68.787 17.2554C68.787 17.2641 68.7836 17.2724 68.7775 17.2785C68.7714 17.2847 68.7631 17.2881 68.7544 17.2881C68.7458 17.2881 68.7375 17.2847 68.7314 17.2785C68.7253 17.2724 68.7219 17.2641 68.7219 17.2554C68.787 17.3209 68.9173 17.2881 68.9824 17.3537C69.0476 17.4193 68.8847 17.3537 68.8521 17.3537C69.3733 17.5176 69.9596 17.6159 70.4156 17.9765C70.0247 18.0936 69.6182 18.1488 69.2104 18.1404H69.0476C68.9824 18.1404 68.9173 18.1404 68.8847 18.206H68.6567" fill="white"/>
<path d="M71.6864 19.7463L71.9796 19.4513C72.1584 19.2386 72.3545 19.0412 72.5659 18.8613L72.7613 18.6974C72.7802 18.6806 72.7918 18.6571 72.7939 18.6318L72.5659 18.763C72.5659 18.763 72.5333 18.763 72.5659 18.7302L72.7288 18.5991H72.6962C72.5896 18.5938 72.4834 18.615 72.3868 18.6607C72.2903 18.7064 72.2064 18.7753 72.1425 18.8613H72.0773C71.8167 18.9596 71.6213 19.1891 71.3607 19.2874L71.035 19.4185C70.8943 19.4351 70.7522 19.4351 70.6116 19.4185L69.9601 19.5497L69.6344 19.6808H69.6018C69.6018 19.6895 69.5984 19.6978 69.5923 19.704C69.5862 19.7101 69.5779 19.7136 69.5693 19.7136L69.4715 19.8119L69.1784 20.0414C69.1741 20.0414 69.1699 20.0422 69.1659 20.0439C69.162 20.0455 69.1584 20.0479 69.1554 20.051C69.1523 20.054 69.1499 20.0576 69.1483 20.0616C69.1467 20.0656 69.1458 20.0698 69.1458 20.0741L68.8527 20.3364H68.8201C68.8527 20.3364 68.8527 20.3036 68.8853 20.2708C68.8873 20.2456 68.899 20.2221 68.9178 20.2053C68.9515 20.1687 68.9741 20.1232 68.983 20.0741L69.2761 19.8775C69.2675 19.8775 69.2592 19.874 69.2531 19.8679C69.247 19.8617 69.2435 19.8534 69.2435 19.8447H69.1784C69.1458 19.9102 69.1133 19.9758 69.0481 19.9758C69.0481 19.9671 69.0515 19.9588 69.0577 19.9526C69.0638 19.9465 69.072 19.943 69.0807 19.943L69.211 19.8447L69.4064 19.7136H69.439L69.1458 19.8447H69.1133C69.1133 19.8447 69.1133 19.8775 69.0807 19.8447L69.1784 19.7463H69.211C69.7647 19.3202 70.5464 19.4185 71.1979 19.1891L71.3607 19.0908C71.4259 19.058 71.491 18.9596 71.6213 18.9269C71.7551 18.8138 71.8564 18.6666 71.9145 18.5007H71.8819C71.6421 18.5942 71.3894 18.6495 71.1327 18.6646C70.7591 18.8092 70.3602 18.8761 69.9601 18.8613H70.0578C70.0578 18.8285 70.0904 18.7957 70.123 18.763H70.1881C70.1881 18.7587 70.189 18.7544 70.1906 18.7504C70.1922 18.7464 70.1946 18.7428 70.1977 18.7398C70.2007 18.7367 70.2043 18.7343 70.2082 18.7327C70.2122 18.731 70.2164 18.7302 70.2207 18.7302H70.2858C70.2207 18.6646 70.123 18.7957 70.0253 18.7302C69.9276 18.6646 70.0578 18.6646 70.0904 18.6318H70.1556C70.1576 18.6066 70.1693 18.5831 70.1881 18.5663C70.4487 18.4024 70.7093 18.3041 70.9373 18.1402C71.1653 17.9763 70.8721 18.2057 70.807 18.1729C70.7419 18.1402 70.807 18.1074 70.8396 18.1074C71.0296 18.045 71.2147 17.9683 71.3933 17.8779C71.3282 17.8779 71.263 17.9435 71.1979 17.8779H71.2956V17.8124C71.2956 17.8037 71.299 17.7953 71.3051 17.7892C71.3112 17.783 71.3195 17.7796 71.3282 17.7796H71.2956L71.3933 17.714H71.3607C71.3876 17.6799 71.4225 17.653 71.4624 17.6358C71.5022 17.6186 71.5456 17.6117 71.5887 17.6157C71.5562 17.5829 71.491 17.6157 71.491 17.5829C71.491 17.5501 71.5236 17.5501 71.5562 17.5501H71.491C71.4824 17.5501 71.4741 17.5467 71.468 17.5405C71.4619 17.5344 71.4584 17.526 71.4584 17.5173C71.4584 17.5087 71.4619 17.5003 71.468 17.4942C71.4741 17.488 71.4824 17.4846 71.491 17.4846C71.5594 17.3484 71.614 17.2056 71.6539 17.0584H71.6213C71.4114 17.2297 71.1668 17.3527 70.9047 17.419H70.807C70.759 17.4371 70.7075 17.4436 70.6565 17.4379C70.6056 17.4322 70.5567 17.4145 70.5139 17.3862L70.351 17.2551L69.895 17.0257C69.4688 16.8491 69.0186 16.7386 68.5595 16.6979C68.7603 16.6239 68.9675 16.569 69.1784 16.534C69.4557 16.4139 69.7562 16.3579 70.0578 16.3701C69.9927 16.3373 69.9276 16.3701 69.895 16.3701C69.6413 16.3543 69.387 16.3877 69.1458 16.4684L68.6247 16.5995C68.527 16.6323 68.4618 16.7634 68.3641 16.7306V16.6651C68.4393 16.5543 68.5356 16.4596 68.6475 16.3864C68.7593 16.3133 68.8844 16.2632 69.0155 16.239C69.3193 16.2002 69.6273 16.2113 69.9276 16.2717L70.6116 16.4029C70.6767 16.4029 70.7093 16.534 70.7744 16.5667C70.8396 16.5995 70.9699 16.5667 71.1002 16.6323C71.2304 16.6979 71.0676 16.5667 71.1002 16.534C71.1327 16.5012 71.2304 16.534 71.3282 16.5012C71.4259 16.4684 71.1979 16.2717 71.1327 16.1406C71.2956 16.239 71.3933 16.4029 71.5562 16.4684C71.719 16.534 71.8493 16.5667 71.8167 16.4684C71.7051 16.2802 71.5741 16.1044 71.4259 15.9439V15.8784H71.3607V15.7145C71.2956 15.6817 71.3282 15.6161 71.2956 15.5834C71.263 15.5506 71.263 15.3539 71.2304 15.2556C71.1932 15.1614 71.1712 15.0618 71.1653 14.9606C71.0953 14.6797 71.041 14.3952 71.0024 14.1083C70.9699 13.7805 71.1979 13.5183 71.3607 13.2233C71.4576 12.9881 71.6295 12.7921 71.8493 12.666C71.9058 12.454 72.0184 12.2614 72.175 12.1088C72.3089 11.9387 72.4905 11.8131 72.6962 11.7482L73.1848 11.5515H61.1982V20.8608H69.667C70.0365 20.6443 70.417 20.4473 70.807 20.2708C71.1278 20.148 71.4253 19.9706 71.6864 19.7463ZM69.0155 18.5007C68.983 18.5007 68.9178 18.5335 68.9178 18.5007C68.9178 18.4679 69.0481 18.4024 69.1458 18.3696C69.2435 18.3368 69.211 18.3041 69.2435 18.3368L69.3738 18.4024C69.2761 18.5007 69.1458 18.4679 69.0155 18.5007ZM66.3446 18.1074H66.3121C66.537 17.8333 66.7334 17.5367 66.8984 17.2223C67.1178 17.0768 67.3153 16.9001 67.4847 16.6979C67.7562 16.3739 68.0882 16.1067 68.4618 15.9112C68.6135 15.874 68.7729 15.8855 68.9178 15.9439C68.8527 16.0095 68.755 16.0095 68.6898 16.0423H68.6572V15.9767C68.4944 16.1734 68.2338 16.2717 68.1035 16.5012C67.9732 16.7306 67.9407 16.8945 67.7127 16.9273C67.4847 16.9601 67.7127 16.8945 67.6801 16.8945C67.1902 17.246 66.7421 17.6529 66.3446 18.1074ZM67.7778 16.9601C67.7778 16.9929 67.7452 16.9929 67.7452 17.0257C67.7452 17.0584 67.7127 17.0912 67.6801 17.0912H67.6475C67.6475 17.0257 67.7127 16.9273 67.7778 16.9273M68.5921 19.5497C68.5921 19.5824 68.5595 19.5824 68.5595 19.6152C68.5595 19.648 68.5921 19.6152 68.5921 19.648L68.4618 19.7136H68.3641C68.3315 19.7463 68.2338 19.7463 68.2664 19.7136L68.3967 19.5824C68.4292 19.5497 68.4618 19.5497 68.4618 19.5169C68.4705 19.5169 68.4787 19.5134 68.4848 19.5073C68.491 19.5011 68.4944 19.4928 68.4944 19.4841H68.5921M68.299 19.353L68.0709 19.4841L67.8429 19.5824H67.8104L67.6475 19.7136H67.5498C67.5498 19.7223 67.5464 19.7306 67.5403 19.7367C67.5341 19.7429 67.5259 19.7463 67.5172 19.7463H67.4847C67.4847 19.7791 67.4847 19.7791 67.4521 19.7791H67.4195C67.3869 19.8119 67.3544 19.8119 67.3544 19.8447L67.2566 19.943H67.1589L67.2241 19.8775H67.2892C67.2892 19.8601 67.2961 19.8434 67.3083 19.8311C67.3205 19.8188 67.3371 19.8119 67.3544 19.8119C67.3544 19.8032 67.3578 19.7949 67.3639 19.7887C67.37 19.7826 67.3783 19.7791 67.3869 19.7791C67.4195 19.7463 67.4195 19.7463 67.4195 19.7136C67.4521 19.6808 67.4847 19.648 67.4847 19.6152L67.4195 19.6808C67.4152 19.6808 67.411 19.6799 67.407 19.6783C67.4031 19.6766 67.3995 19.6742 67.3965 19.6712C67.3935 19.6681 67.3911 19.6645 67.3894 19.6605C67.3878 19.6566 67.3869 19.6523 67.3869 19.648C67.3956 19.648 67.4039 19.6446 67.41 19.6384C67.4161 19.6323 67.4195 19.6239 67.4195 19.6152H67.4521L67.5172 19.5169H67.5824V19.4513C67.7778 19.2874 68.0384 19.3202 68.2664 19.1891C68.4944 19.058 68.4618 19.2219 68.527 19.1891H68.6898L68.2664 19.4841M68.6247 18.2713C68.5921 18.2385 68.6572 18.2713 68.6898 18.2057H68.5595L68.2664 18.3041L67.9081 18.4352C67.7305 18.5462 67.5454 18.6447 67.3544 18.7302C67.3218 18.7302 67.3218 18.7302 67.3218 18.6974L67.4521 18.5991C67.5902 18.4214 67.755 18.2666 67.9407 18.1402V18.0746C68.0137 18.0175 68.0794 17.9514 68.1361 17.8779C68.1489 17.8399 68.1703 17.8053 68.1986 17.7769C68.2268 17.7485 68.2611 17.727 68.299 17.714H68.2338C68.1687 17.714 68.1035 17.7468 68.0384 17.6812L68.1361 17.6157H68.1035C68.0709 17.5501 68.1361 17.5173 68.2012 17.5173L68.3967 17.4518C68.2664 17.419 68.1361 17.4846 68.0058 17.419C68.0834 17.1907 68.2472 17.0022 68.4618 16.8945H68.4944C68.4944 16.9929 68.4618 17.0584 68.3641 17.0584L68.7875 17.1896C68.7875 17.1982 68.7841 17.2066 68.778 17.2127C68.7719 17.2189 68.7636 17.2223 68.755 17.2223C68.7463 17.2223 68.738 17.2189 68.7319 17.2127C68.7258 17.2066 68.7224 17.1982 68.7224 17.1896C68.7875 17.2551 68.9178 17.2223 68.983 17.2879C69.0481 17.3535 68.8853 17.2879 68.8527 17.2879C69.3738 17.4518 69.9601 17.5501 70.4161 17.9107C70.0288 18.05 69.6221 18.1274 69.211 18.1402H69.0481C68.983 18.1402 68.9178 18.1402 68.8853 18.2057H68.6572" fill="#000091"/>
<path d="M86.5717 11.5518H76.6698L76.7349 11.6173L76.9955 11.7484C77.1234 11.8083 77.2351 11.8982 77.3212 12.0107C77.3538 12.0762 77.4189 12.1746 77.3864 12.2401C77.3538 12.3057 77.3212 12.4696 77.2561 12.5024C77.1331 12.5563 76.9989 12.5788 76.8652 12.5679L76.6698 12.5024C76.9406 12.5955 77.1784 12.7665 77.3538 12.994L77.5167 13.0596C77.4841 13.0924 77.4515 13.1252 77.4841 13.1579H77.5167C77.6144 13.1252 77.5818 12.9613 77.7121 13.0268C77.7369 13.0361 77.759 13.0513 77.7767 13.0712C77.7943 13.091 77.8069 13.1149 77.8133 13.1407C77.8197 13.1665 77.8198 13.1935 77.8135 13.2194C77.8072 13.2452 77.7948 13.2691 77.7772 13.2891L77.5818 13.453C77.5658 13.471 77.5569 13.4943 77.5569 13.5185C77.5569 13.5427 77.5658 13.566 77.5818 13.5841L77.6795 13.7808L77.7772 14.1741C77.868 14.4261 77.9122 14.6928 77.9075 14.9608C77.9075 15.0919 77.8424 15.223 77.9075 15.3542C77.9417 15.4928 77.9966 15.6255 78.0704 15.7475C78.1556 15.8178 78.2226 15.9078 78.2658 16.0097C78.3961 16.1736 78.559 16.3703 78.4938 16.567C78.4287 16.7637 78.2332 16.6653 78.103 16.7637C77.9727 16.862 78.103 16.9931 78.1681 17.0587C78.2332 17.1242 78.0378 17.3209 77.9401 17.3865C77.8424 17.452 78.0378 17.4193 78.0378 17.452C78.0378 17.4848 78.1681 17.5832 78.103 17.6815C78.0378 17.7798 77.8098 17.8454 77.9401 18.0093C78.0704 18.1732 77.9401 18.2715 77.9075 18.3699C77.8803 18.4381 77.8361 18.4982 77.779 18.5441C77.7219 18.5901 77.654 18.6204 77.5818 18.6321C77.5331 18.6609 77.4788 18.6788 77.4225 18.6844C77.3663 18.6901 77.3095 18.6834 77.2561 18.6649H77.1584C76.8678 18.6051 76.5742 18.5614 76.2789 18.5338L76.0183 18.5993L75.8229 18.796H75.7252L75.5949 18.9927C75.5949 19.0254 75.5949 19.0254 75.5623 19.0254L75.432 19.3532C75.3343 19.7466 75.3669 20.1072 75.4646 20.1727C75.5623 20.2383 76.0509 20.3694 76.4092 20.5661L76.8326 20.7627H86.5717V11.5518Z" fill="#E1000F"/>
<path d="M77.2563 14.9617H77.4191C77.3866 15.1256 77.1911 15.1584 77.0608 15.2895H77.0283C76.9631 15.3223 76.9957 15.4206 76.9306 15.4206C76.8654 15.4206 76.8328 15.4206 76.7677 15.4206C76.796 15.4634 76.8349 15.498 76.8807 15.521C76.9264 15.544 76.9773 15.5546 77.0283 15.5517L77.0934 15.6173H77.1586V15.7156C77.0934 15.7812 77.0283 15.7484 76.9631 15.7812H77.354C77.4517 15.7156 77.354 15.5517 77.4191 15.4534C77.4843 15.355 77.4191 15.4206 77.3866 15.4206C77.354 15.4206 77.4517 15.3223 77.4843 15.3223C77.5169 15.3223 77.582 15.2895 77.582 15.2567C77.582 15.2239 77.5169 15.1911 77.5494 15.1584C77.582 15.1256 77.7449 14.9945 77.7123 14.8961C77.6797 14.7978 77.5494 14.8306 77.4517 14.7978C77.3531 14.7757 77.25 14.7873 77.1586 14.8306L76.898 14.8961L76.5723 15.06C76.697 15.008 76.8287 14.9749 76.9631 14.9617C77.0602 14.9452 77.1593 14.9452 77.2563 14.9617Z" fill="#9C9B9B"/>
</g>
</g>
<defs>
<clipPath id="clip0_3223_82">
<rect width="190" height="56" fill="white"/>
</clipPath>
<clipPath id="clip1_3223_82">
<rect width="87" height="71" fill="white" transform="translate(50.9717 2.27539)"/>
</clipPath>
</defs>
</svg>
